<?xml version="1.0" standalone="no"?>
<!DOCTYPE svg PUBLIC "-//W3C//DTD SVG 20010904//EN"
 "http://www.w3.org/TR/2001/REC-SVG-20010904/DTD/svg10.dtd">
<svg version="1.0" xmlns="http://www.w3.org/2000/svg"
 width="700.000000pt" height="700.000000pt" viewBox="0 0 700.000000 700.000000"
 preserveAspectRatio="xMidYMid meet">
<metadata>
Created by potrace 1.11, written by Peter Selinger 2001-2013
</metadata>
<g transform="translate(0.000000,700.000000) scale(0.100000,-0.100000)"
fill="#000000" stroke="none">
<path d="M4246 6910 c-248 -103 -466 -461 -612 -1005 -22 -82 -24 -85 -19 -35
3 30 7 66 9 80 9 50 27 176 32 215 5 39 19 126 29 174 2 12 7 44 10 69 3 26 7
54 9 62 3 8 7 31 10 50 8 50 16 93 21 110 2 8 7 37 11 63 7 54 -6 76 -61 105
-113 59 -367 47 -423 -20 -9 -12 -12 -87 -12 -314 1 -165 3 -330 4 -369 12
-261 19 -381 23 -387 2 -5 -1 -8 -6 -8 -6 0 -11 6 -11 13 0 17 -16 117 -34
217 -68 369 -118 487 -306 724 -77 97 -213 231 -251 246 -44 18 -131 4 -203
-34 -117 -61 -169 -140 -152 -231 5 -25 20 -40 71 -74 248 -165 463 -512 630
-1018 45 -135 133 -478 154 -598 11 -57 14 -78 26 -135 2 -14 7 -44 10 -67 6
-42 5 -43 -22 -44 -15 0 -37 -2 -48 -4 -11 -1 -45 -6 -75 -9 -30 -3 -66 -8
-80 -11 -14 -3 -38 -7 -55 -9 -38 -6 -126 -29 -185 -50 -25 -8 -76 -22 -114
-31 -131 -31 -321 -102 -398 -151 -20 -13 -40 -24 -43 -24 -14 0 -154 -111
-204 -161 -69 -69 -150 -176 -194 -259 -32 -57 -96 -206 -102 -235 -1 -5 -7
-30 -14 -55 -15 -52 -17 -59 -37 -160 -25 -125 -31 -178 -40 -345 -17 -284 -9
-400 40 -635 14 -65 63 -195 110 -295 96 -202 260 -420 458 -610 173 -166 228
-213 553 -470 254 -201 309 -248 423 -364 101 -104 179 -213 242 -338 44 -89
91 -223 92 -266 1 -35 8 -28 14 15 9 59 73 238 121 337 59 123 180 316 253
406 67 82 215 225 320 310 41 33 80 65 86 70 6 6 28 24 49 40 42 32 165 135
230 192 407 354 620 740 672 1218 15 135 7 555 -12 584 -2 4 -6 24 -9 46 -11
64 -35 151 -70 249 -136 373 -424 687 -799 870 -111 54 -166 71 -252 81 -119
12 -151 16 -225 26 -41 5 -105 12 -142 15 -37 3 -75 7 -85 9 -10 2 -26 4 -35
4 -14 1 -16 10 -12 54 7 87 25 201 50 307 9 36 17 72 19 80 57 242 205 588
342 799 149 231 353 431 535 526 49 25 61 37 78 78 52 120 12 259 -97 335 -82
58 -213 76 -297 42z m-968 -1245 c-3 -3 -9 2 -12 12 -6 14 -5 15 5 6 7 -7 10
-15 7 -18z"/>
<path d="M3512 100 c0 -19 2 -27 5 -17 2 9 2 25 0 35 -3 9 -5 1 -5 -18z"/>
</g>
</svg>
