<?xml version="1.0" encoding="UTF-8" standalone="no"?>
<svg
   version="1.1"
   viewBox="0 0 85.074152 107.23852"
   id="svg1052"
   sodipodi:docname="_netOfTrees.icon-white-outline.svg"
   inkscape:version="1.2.1 (9c6d41e410, 2022-07-14)"
   width="85.07415"
   height="107.23852"
   xmlns:inkscape="http://www.inkscape.org/namespaces/inkscape"
   xmlns:sodipodi="http://sodipodi.sourceforge.net/DTD/sodipodi-0.dtd"
   xmlns="http://www.w3.org/2000/svg"
   xmlns:svg="http://www.w3.org/2000/svg">
  <defs
     id="defs1056">
    <clipPath
       clipPathUnits="userSpaceOnUse"
       id="clipPath2322">
      <path
         id="path2324"
         d="M 42.539062,0 V 0.00195313 C 38.902078,0.00214584 35.603075,2.1329927 34.109375,5.4492188 L 0.82617188,79.408203 C -1.9298419,85.526816 2.5453557,92.449219 9.2558594,92.449219 l 15.1738286,-0.002 c 4.434603,-0.0024 8.153076,3.145193 9.033203,7.332031 0.832959,4.24717 4.579898,7.45801 9.076171,7.45898 5.106713,0.002 9.246361,-4.13731 9.248047,-9.244136 v -3.972657 c -0.0022,-5.79e-4 -0.0037,-0.0014 -0.0059,-0.002 -0.946543,0.652404 -2.09363,1.035587 -3.330078,1.035157 -2.854888,-5.54e-4 -5.23475,-2.037624 -5.763631,-4.734282 -0.558808,-2.658374 -2.918744,-4.659714 -5.734375,-4.658203 l -9.634766,0.002 c -4.260865,-4.31e-4 -7.103417,-4.39637 -5.353515,-8.28125 L 43.097656,30.423828 c 0.948332,-2.105396 3.042486,-3.460721 5.351563,-3.460937 h 0.002 c 2.310372,-0.0011 4.406597,1.354331 5.355469,3.460937 L 74.9395,77.382812 c 1.332458,2.957924 0.01195,6.436125 -2.947265,7.765626 -1.903811,0.856187 -4.018388,0.609055 -5.640626,-0.460938 l 1.039063,2.306641 c 2.093901,4.657435 7.566812,6.735248 12.224609,4.640625 4.660568,-2.093901 6.738862,-7.570237 4.640625,-12.228516 L 50.974609,5.4492188 C 49.480067,2.1311859 46.177733,-0.00180675 42.539062,0 Z"
         style="fill:#000000;fill-opacity:1;stroke:none;stroke-opacity:1" />
    </clipPath>
  </defs>
  <sodipodi:namedview
     id="namedview1054"
     pagecolor="#ffffff"
     bordercolor="#666666"
     borderopacity="1.0"
     inkscape:showpageshadow="2"
     inkscape:pageopacity="0.0"
     inkscape:pagecheckerboard="0"
     inkscape:deskcolor="#d1d1d1"
     showgrid="false"
     inkscape:zoom="15.469802"
     inkscape:cx="48.319946"
     inkscape:cy="54.978079"
     inkscape:window-width="3840"
     inkscape:window-height="2276"
     inkscape:window-x="-12"
     inkscape:window-y="-12"
     inkscape:window-maximized="1"
     inkscape:current-layer="svg1052" />
  <path
     id="path2320"
     d="M 42.539062 0 L 42.539062 0.001953125 C 38.902078 0.0021458448 35.603075 2.1329927 34.109375 5.4492188 L 0.82617188 79.408203 C -1.9298419 85.526816 2.5453557 92.449219 9.2558594 92.449219 L 24.429688 92.447266 C 28.864291 92.444866 32.582764 95.592459 33.462891 99.779297 C 34.29585 104.02647 38.042789 107.23731 42.539062 107.23828 C 47.645775 107.24028 51.785423 103.10097 51.787109 97.994141 L 51.787109 94.021484 C 51.784928 94.020905 51.783426 94.020115 51.78125 94.019531 C 50.834707 94.671935 49.68762 95.055118 48.451172 95.054688 C 45.596243 95.05404 43.216381 93.01697 42.6875 90.320312 C 42.128692 87.661938 39.768756 85.660598 36.953125 85.662109 L 27.318359 85.664062 C 23.057494 85.663631 20.214942 81.267692 21.964844 77.382812 L 43.097656 30.423828 C 44.045988 28.318432 46.140142 26.963107 48.449219 26.962891 L 48.451172 26.962891 C 50.761544 26.961811 52.857769 28.317222 53.806641 30.423828 L 74.939453 77.382812 C 76.271911 80.340736 74.951407 83.818937 71.992188 85.148438 C 70.088377 86.004625 67.9738 85.757493 66.351562 84.6875 L 67.390625 86.994141 C 69.484526 91.651576 74.957437 93.729389 79.615234 91.634766 C 84.275802 89.540865 86.354096 84.064529 84.255859 79.40625 L 50.974609 5.4492188 C 49.480067 2.1311859 46.177733 -0.0018067482 42.539062 0 z "
     style="fill:none;fill-opacity:1;stroke:#ffffff;stroke-opacity:1;stroke-width:2;stroke-dasharray:none"
     clip-path="url(#clipPath2322)" />
  <g
     transform="translate(-219.30004,345.38489)"
     display="none"
     id="g1008">
    <rect
       transform="translate(-3.7474,-28.345)"
       x="-54.972"
       y="-93.963997"
       width="987.91998"
       height="515.02002"
       display="inline"
       fill="#2bcfff"
       stroke="#ff2eff"
       stroke-linejoin="bevel"
       stroke-width="0.52917"
       id="rect1006" />
  </g>
  <text
     transform="translate(94.146962,501.68489)"
     fill="#000000"
     font-family="sans-serif"
     font-size="40px"
     style="line-height:1.25;white-space:pre;shape-inside:url(#rect12293);display:inline"
     xml:space="preserve"
     id="text1010" />
  <g
     transform="matrix(1.7749512,0,0,1.7749512,-137.04805,-169.10703)"
     id="g1048" />
</svg>
