<svg version="1.1" viewBox="0 0 500 500" xmlns="http://www.w3.org/2000/svg"><g transform="matrix(1.2081 0 0 1.2081 -49.672 -48.922)"><path d="m248.93 451.18s3.8194-13.393-12.101-36.302c-23.625-33.997-103.39-62.236-101.99-137.72 0.65306-35.285 5.7622-82.4 64.537-94.5 30.679-11.309 60.165-4.7211 89.891-1.7287 0 0 67.053 19.658 63.384 98.534-3.4573 74.333-61.08 87.586-84.705 122.16-22.394 32.772-19.015 49.555-19.015 49.555z" style="fill:#d8b86f;stroke-width:1px"/><path d="m296.35 44.596c-21.47 4.5835-34.53 36.505-42.27 67.848 2.3363-17.676 5.0527-35.952 8.9609-56.117-3.0021-7.5437-25.108-8.4371-29.656-2.1035-0.76409 23.753 0.28449 46.902 1.6504 69.945-2.7374-19.781-6.3135-39.248-10.504-47.148-10.28-19.382-25.008-30.652-25.008-30.652-8.8577-2.7852-26.085 6.8653-20.914 17.814 41.835 23.468 52.674 114.64 52.674 114.64 3.8429 1.3312 6.6203 0.17654 9.627-0.44336 0 0-0.10583-1.2724-0.17383-2.0957l3.0781 0.25977c-4e-3 0.0783-0.0289 0.39832-0.0274 0.39843l0.44336 0.33203c0.21731 3.477 11.923 2.3141 11.064 1.7695-3.2575-2.0652 8.3638-83.532 58.65-107.89 7.098-9.9972 1.7501-26.556-17.596-26.559z" style="fill:#479423;stroke-width:1px"/><path d="m234.38 170.97c-0.18282-1.2391-8.3157-52.431-14.955-67.702-6.6396-15.271-14.074-33.18-28.665-41.682-3.422 2.4336-8.809 2.582-10.455 2.3945 13.476 5.1291 25.972 23.608 32.782 40.019 3.9642 9.5538 15.654 44.232 17.642 66.085 0.555 6.1014 4.3676 5.7369 3.6518 0.88528z" style="fill:#52b526;stroke-width:1px"/><path d="m196.75 56.925c2.5572-1.9536 2.6942-5.4815 3.4311-8.428 9.7401 8.5785 19.466 20.215 24.953 33.956 8.7302 21.863 14.287 91.948 14.287 91.948 0.12325 2.2686-3.0901 2.0953-3.3813-0.7759 0 0-5.8904-63.88-18.88-92.223-4.9722-10.849-12.645-17.082-20.41-24.476z" style="fill:#3a7e1c;stroke-width:1px"/><path d="m198.46 47.981c-0.61836 1.938-0.66619 4.9971-8.728 11.127-2.7933 2.124-6.4468 4.373-10.686 3.7972-0.40503-2.2325-1.3131-7.6382 3.7598-11.228 7.2302-5.116 12.115-4.7578 15.654-3.6966z" style="fill:#52b526;stroke-width:1px"/><path d="m247.79 50.83c-5.3697 0.02143-8.6703 1.749-11.061 4.0248 3.0658 3.403 6.0388 2.6495 10.179 3.0263 5.0908 0.46326 10.069-0.61565 13.622-3.0041-3.2625-2.2971-5.8771-4.0744-12.741-4.047z" style="fill:#52b526;stroke-width:1px"/><path d="m296.92 45.292c4.0459 0.38428 10.027 1.6567 14.127 5.7854 4.1845 4.2136 4.3074 11.109 2.5274 15.677-3.7895-1.1056-9.7581-3.1415-12.296-7.1607-3.045-4.8227-4.018-9.4205-4.359-14.301z" style="fill:#52b526;stroke-width:1px"/><path d="m295.26 46.44c0.14414 3.2246 0.11605 4.9578 1.1288 8.2562-8.2999 4.9255-21.508 21.67-27.557 33.282-14.998 28.793-16.742 54.552-23.274 87.085-1.2644-0.5999 6.9076-60.551 16.156-83.991 2.9604-7.5025 14.783-40.225 33.545-44.633z" style="fill:#52b526;stroke-width:1px"/><path d="m301.96 63.866c2.3938 2.7492 4.5725 4.5725 11.14 5.1792-7.6957 1.4011-25.971 20.744-36.257 33.644-17.207 21.58-24.662 73.509-23.435 73.591-0.88245-0.44122 2.8526-54.232 17.302-75.783 9.4106-14.036 14.899-27.302 31.25-36.631z" style="fill:#3a7e1c;stroke-width:1px"/><path d="m234.46 55.771c2.8013 3.8571 7.7237 5.3722 8.2751 4.999 0 0-1.8031 30.996-2.1106 46.658-0.42933 21.864 0.60838 66.044 0.60838 66.044s-5.9986-41.933-5.7517-65.8c0.17898-17.303-1.0212-51.901-1.0212-51.901z" style="fill:#52b526;stroke-width:1px"/><path d="m251.74 59.302c3.4944 0.07246 7.365-0.27507 9.415-1.7669l-8.6264 55.953-8.975 57.723 4.6516-62.987z" style="fill:#3a7e1c;stroke-width:1px"/><path d="m231.28 178.83c-21.401 6.3027-41.106 7.6428-63.154 22.884-20.939 14.474-21.497 31.71-25.473 40.949l92.082 0.37738z" style="fill-opacity:.5961;fill:#f2e1ff;stroke-width:1px"/><path d="m157.52 242.47c-1.7076-25.939 34.873-48.419 73.759-63.644 7.8091-3.6964 13.218-3.1886 17.417 0.43172 32.221 17.312 33.417 40.139 44.909 61.136-9.2922 6.4327-33.299 10.807-54.54 11.151-10.774-1.2029-65.613-9.4514-81.546-9.0752z" style="fill-opacity:.91644;fill:#d73aff;stroke-width:1px"/><path d="m253.42 182.28c20.948 14.217 21.803 41.219 29.449 61.144 23.315-9.8835 42.334-4.0147 61.5 1.3138-6.2158-14.084-10.955-38.34-53.778-59.061-15.821-3.1365-28.733-5.6342-41.894-6.4155z" style="fill-opacity:.91644;fill:#c00bff;stroke-width:1px"/><path d="m143.83 252.35 16.469 4.4101 43.819 73.103 28.996 33.876 16.077 45.934 0.11225 15.308s-2.1219-15.595-18.199-29.375c-16.077-13.78-63.383-51.794-75.504-68.04-19.62-26.296-13.29-75.943-11.771-75.217z" style="fill:#e7ce85;stroke-width:1px"/><path d="m160.3 256.76c34.434 10.085 77.204 16.494 137.11 5.1702l15.266 25.585-31.687 61.976-26.095 31.221s-4.1939 38.677-6.5238 36.813c-2.3299-1.864-0.29554-5.5628-6.5238-19.106-10.049-21.851-41.968-47.3-66.923-67.993-19.051-15.797-17.62-68.576-14.625-73.668z" style="fill:#e9e0c9;stroke-width:1px"/><path d="m297.41 261.93s12.47 31.177-6.6358 60.534c-19.106 29.357-45.201 32.619-46.133 53.123-0.93197 20.503 4.6599 49.395 4.6599 49.395 7.1573-17.246 15.103-34.348 28.6-46.333 9.7318-8.6413 44.489-35.18 57.221-56.93 10.508-17.951 17.463-54.152 8.2004-61.485-12.182 2.1932-28.193-15.486-45.913 1.6962z" style="fill:#e8d485;stroke-width:1px"/><path d="m194.36 221.92c14.842 3.7805 22.607 1.0373 28.422 1.1484 6.0696 0.11595-2.6446 4.0256-9.8147 4.3433-12.903-0.78069-14.98-1.6651-18.607-5.4917z" style="fill-opacity:.74095;fill:#a86c1c;stroke-width:1px"/><path d="m282.47 223.6c16.694 1.654 26.24 0.0505 32.272 0.25007 6.6086 0.2186 0.29266 2.7319 0.29266 2.7319l-21.935 0.78163c-3.7523-0.59513-10.63-1.8302-10.63-3.7636z" style="fill-opacity:.74095;fill:#a86c1c;stroke-width:1px"/><path d="m242.67 287.84c13.493 1.1484 25.818-3.0839 28.768-2.8227 4.467 0.39546-6.1678 6.0917-11.048 6.3788s-20.957 2.5838-22.106-1.1484 4.3859-2.4078 4.3859-2.4078z" style="fill-opacity:.15877;fill:#a86c1c;stroke-width:1px"/><path d="m333.11 280.1c8.8997-2.0096 10.033 2.1808-2.106 4.423-11.976 2.212-23.136 3.8649-25.454 2.3023-2.2457-1.5139-4.11-1.7484-4.11-1.7484 13.055-0.7275 21.029-2.8172 31.67-4.9768z" style="fill-opacity:.15877;fill:#a86c1c;stroke-width:1px"/><path d="m178.93 290.8c18.374 2.0096 15.003 1.1204 21.418 1.3502 11.934 0.42757-0.54273 3.934-8.007 3.934-7.4643 0-21.122-3.3563-23.419-6.5142-2.2967-3.158 10.007 1.23 10.007 1.23z" style="fill-opacity:.15877;fill:#a86c1c;stroke-width:1px"/><path d="m272.73 337.87c21.244 0.57417 27.898-3.8655 34.214-5.5881 6.3159-1.7225-8.2532 6.7227-13.83 8.2033-11.849 3.1456-22.084-1.8991-20.383-2.6152z" style="fill-opacity:.15877;fill:#a86c1c;stroke-width:1px"/><path d="m204.87 335.15c19.522 0.28709 25.346 1.7165 33.495 2.245 8.3681 0.54274 12.345 2.6523 4.5934 3.5135s-12.732 1.093-22.191-0.43722c-10.632-1.72-15.897-5.3213-15.897-5.3213z" style="fill-opacity:.15877;fill:#a86c1c;stroke-width:1px"/></g></svg>
