<svg version="1.1" viewBox="0 0 500 500" xmlns="http://www.w3.org/2000/svg"><defs><linearGradient id="linearGradient905" x1="232.64" x2="236.62" y1="360.49" y2="293.79" gradientTransform="matrix(1.3411,0,0,1.3411,-148.93,-68.527)" gradientUnits="userSpaceOnUse"><stop style="stop-color:#4d3906" offset="0"/><stop style="stop-color:#a06b46;stop-opacity:.70752" offset="1"/></linearGradient><linearGradient id="linearGradient965" x1="320.38" x2="292.88" y1="212.46" y2="272.55" gradientTransform="matrix(1.3411,0,0,1.3411,-148.93,-68.527)" gradientUnits="userSpaceOnUse"><stop style="stop-color:#b736f9" offset="0"/><stop style="stop-color:#efa9f9;stop-opacity:.96657" offset="1"/></linearGradient><linearGradient id="linearGradient986" x1="371.98" x2="403.98" y1="85.159" y2="135.17" gradientTransform="matrix(1.3411,0,0,1.3411,-148.93,-68.527)" gradientUnits="userSpaceOnUse"><stop style="stop-color:#58c646" offset="0"/><stop style="stop-color:#104046" offset="1"/></linearGradient><linearGradient id="linearGradient994" x1="325.29" x2="362.96" y1="86.493" y2="209.71" gradientTransform="matrix(1.3411,0,0,1.3411,-148.93,-68.527)" gradientUnits="userSpaceOnUse"><stop style="stop-color:#2dbc46" offset="0"/><stop style="stop-color:#046300" offset="1"/></linearGradient></defs><path d="m262.51 31.956c-0.89218-9.82e-4 -1.3778 0.02358-1.3778 0.02358l-18.091 15.577-8.0414 10.553s-44.22 31.659-38.19 54.273c6.0303 22.614 36.684 2.009 36.684 2.009s-8.5446 19.096-5.5294 27.639c3.0152 8.5429 21.609-3.5177 21.609-3.5177s-9.0452 8.0408-6.5326 17.589c2.5127 9.548 43.217-2.009 43.217-2.009l7.7663-14.304 2.284 6.7657s26.636 5.5275 26.133-10.553c-0.50253-16.081-16.082-14.071-16.082-14.071s18.093-2.0104 15.58-14.071c-2.5132-12.06-23.115-15.074-23.115-15.074s34.674-19.096 14.071-40.705c-18.028-18.908-44.138-20.118-50.382-20.125zm154.78 34.643c-23.165-0.38006-7.5582 46.289-23.491 52.316-22.614 7.5379-29.65 29.648-29.65 29.648l-3.5152 7.0356s-19.6 34.171 8.5416 44.223c28.142 10.05 32.162-19.095 32.162-19.095s6.5309 61.31 41.708 55.782c35.177-5.528 44.726-44.225 44.726-44.225l-42.211-45.226-4.0206-13.065c17.265-35.402 27.611-63.402-23.115-67.341-0.38751-0.03004-0.76648-0.0464-1.1342-0.05244z" style="fill:url(#linearGradient994);stroke-width:6.7055;stroke:#000"/><path d="m340.02 133.99s40.705 1.5075 48.745-23.117c8.0399-24.624-17.086-32.162-17.086-32.162s38.192-5.5277 32.162-37.689c-6.0304-32.162-27.639-36.182-27.639-36.182l-37.689 40.202-9.0454 10.553z" style="fill:url(#linearGradient986);stroke-width:6.7059;stroke:#000"/><path d="m270.67 208.37c16.583-25.628 20.1-68.847 17.086-74.876-3.0152-6.0302-23.117-54.273-42.212-65.831-19.096-11.558-2.5127-20.1-2.5127-20.1s38.695 36.684 43.217 49.248c4.5222 12.563 23.117 48.745 15.075 76.887-8.0404 28.142-20.603 42.715-20.603 42.715l-12.061-7.5379z" style="fill-opacity:.96471;fill:#589446;stroke-width:6.7055;stroke:#000"/><path d="m297.31 188.27s41.71-53.267 33.167-80.907c-8.5429-27.639-4.5227-63.82-4.5227-63.82l12.563 1.5075s-0.50252 41.207 4.0202 53.77c4.5227 12.563 7.0354 40.705-1.005 52.263-8.0404 11.558-51.258 69.851-51.258 69.851l-9.548-4.5227z" style="fill-opacity:.96471;fill:#589446;stroke-width:6.7055;stroke:#000"/><path d="m305.35 225.95s35.68-50.252 47.74-60.303c12.061-10.05 92.465-18.593 92.465-18.593l-5.0252-18.593s-74.373 8.5429-87.44 18.091c-13.066 9.548-62.816 74.373-62.816 74.373z" style="fill-opacity:.96471;fill:#589446;stroke-width:6.7055;stroke:#000"/><path d="m76.133 494.45s13.901-20.851 8.9363-33.097c-4.9646-12.246-57.776-104.33-56.487-140.78 1.2753-36.076-5.8041-73.785 72.705-117.72 45.533-25.478 105.93-20.912 133.07-14.623 17.835 4.1327 33.038 21.358 49.601 29.172 8.6395 4.0759 59.038 16.817 71.065 28.39 35.083 33.76 53.676 67.571 41.081 128.61-12.943 62.726-41.068 100.1-114.21 112.35-73.145 12.246-108.58-9.9413-147.83-11.179-23.754-0.74882-57.921 18.865-57.921 18.865z" style="fill:#fffdf9;stroke-width:1.3411px;stroke:#000"/><path d="m70.434 272.18c-13.862-0.39901-24.034 12.858-41.671 40.714-0.03983 2.5718-0.08784 5.1364-0.17811 7.6904-1.2882 36.44 51.524 128.53 56.488 140.78 4.9646 12.246-8.9372 33.098-8.9372 33.098s34.167-19.616 57.921-18.867c39.249 1.2373 74.683 23.425 147.83 11.179 42.55-7.1239 69.849-22.771 87.803-46.947-9.5222 1.4762-12.778 9.9893-23.712 8.9607-16.081-2.01 53.452-54.285 8.2244-78.406-45.227-24.121-135.28 30.957-134.77 24.424 0.50252-6.5329 9.3401-29.048-28.852-52.668-38.192-23.618-72.619 25.565-80.158 25.062-7.5383-0.50292-4.0591-82.952-30.692-93.003-3.3293-1.2563-6.3925-1.9308-9.2907-2.0143z" style="fill:url(#linearGradient905);stroke-width:6.7055;stroke:#000"/><path d="m188.03 183.33c-27.442-0.12767-59.714 4.4068-86.75 19.534-4.7903 2.6805-9.2524 5.3354-13.427 7.9707 15.766 6.1398 36.542 13.635 61.212 21.144 57.791 17.589 52.047 54.403 85.429 69.85 27.82 12.872 58.292 21.106 90.453 16.583 32.162-4.5227 40.705 3e-3 59.299 9.5501 4.0284 2.0686 9.5567 4.1056 15.687 6.0402-1.3785-37.213-18.451-62.723-44.924-88.199-12.027-11.573-62.426-24.315-71.065-28.391-16.563-7.8135-31.764-25.038-49.599-29.172-11.025-2.5547-27.539-4.8238-46.315-4.9112z" style="fill:url(#linearGradient965);stroke-width:6.7055;stroke:#000"/><path d="m60.453 300.9c-14.58-0.05798-27.568 38.494-27.568 38.494l-1.4199 1.4668c10.202 39.696 44.259 100.99 52.268 117.57l21.145 22.949c9.5988-3.4098 20.14-6.0779 29.18-5.793 39.249 1.2373 74.683 23.426 147.83 11.18 25.214-4.2212 45.077-11.43 60.814-21.633-3.0482 0.6818-13.408 2.3657-21.885-3.9922-10.041-7.5309 20.083-57.485 5.0215-72.045-15.062-14.56-117.73 37.402-117.73 37.402s-14.811-43.929-34.141-61.752c-19.329-17.823-77.568 23.094-77.568 23.094s-15.062-75.811-31.379-85.602c-1.5297-0.91782-3.0542-1.3358-4.5625-1.3418z" style="fill:#4f3a08;stroke-width:1px"/><path d="m188.04 183.33c-21.222-0.0987-45.328 2.6068-67.672 10.828 2.8399-0.17509 60.238 16.409 72.093 28.264 12.101 12.101 31.409 29.437 48.403 45.522 32.268 30.54 93.347 23.049 106.6 29.387 12.472 5.9651 36.331-6.7372 50.068 16.82-5.7387-26.961-21.024-47.669-42.512-68.346-12.027-11.572-62.425-24.315-71.064-28.391-16.563-7.8132-31.764-25.039-49.6-29.172-11.026-2.5547-27.541-4.8248-46.316-4.9121z" style="fill:#cb60f9;stroke-width:1px"/><path d="m76.133 494.45s13.901-20.851 8.9363-33.097c-4.9646-12.246-57.776-104.33-56.487-140.78 1.2753-36.076-5.8041-73.785 72.705-117.72 45.533-25.478 105.93-20.912 133.07-14.623 17.835 4.1327 33.038 21.358 49.601 29.172 8.6395 4.0759 59.038 16.817 71.065 28.39 35.083 33.76 53.676 67.571 41.081 128.61-12.943 62.726-41.068 100.1-114.21 112.35-73.145 12.246-108.58-9.9413-147.83-11.179-23.754-0.74882-57.921 18.865-57.921 18.865z" style="fill:none;stroke-linecap:round;stroke-linejoin:round;stroke-width:6.7055;stroke:#000"/></svg>
