<svg version="1.1" viewBox="0 0 500 500" xmlns="http://www.w3.org/2000/svg" xmlns:xlink="http://www.w3.org/1999/xlink"><defs><linearGradient id="linearGradient905" x1="232.64" x2="236.62" y1="360.49" y2="293.79" gradientUnits="userSpaceOnUse"><stop style="stop-color:#4d3906" offset="0"/><stop style="stop-color:#a06b46;stop-opacity:.70752" offset="1"/></linearGradient><linearGradient id="linearGradient965" x1="320.38" x2="292.88" y1="212.46" y2="272.55" gradientUnits="userSpaceOnUse"><stop style="stop-color:#b736f9" offset="0"/><stop style="stop-color:#efa9f9;stop-opacity:.96657" offset="1"/></linearGradient><linearGradient id="linearGradient986" x1="371.98" x2="403.98" y1="85.159" y2="135.17" gradientUnits="userSpaceOnUse"><stop style="stop-color:#58c646" offset="0"/><stop style="stop-color:#104046" offset="1"/></linearGradient><linearGradient id="linearGradient994" x1="325.29" x2="362.96" y1="86.493" y2="209.71" gradientUnits="userSpaceOnUse"><stop style="stop-color:#2dbc46" offset="0"/><stop style="stop-color:#046300" offset="1"/></linearGradient></defs><g transform="matrix(1.3411 0 0 1.3411 -148.93 -68.527)"><path d="m306.79 74.926c-0.66526-7.32e-4 -1.0274 0.01758-1.0274 0.01758l-13.49 11.615-5.9961 7.8691s-32.973 23.607-28.477 40.469c4.4965 16.862 27.354 1.498 27.354 1.498s-6.3713 14.239-4.123 20.609c2.2483 6.3701 16.113-2.623 16.113-2.623s-6.7446 5.9957-4.8711 13.115c1.8736 7.1195 32.225-1.498 32.225-1.498l5.791-10.666 1.7031 5.0449s19.861 4.1216 19.486-7.8691c-0.37471-11.991-11.992-10.492-11.992-10.492s13.491-1.4991 11.617-10.492-17.236-11.24-17.236-11.24 25.855-14.239 10.492-30.352c-13.443-14.099-32.912-15.001-37.568-15.006zm115.41 25.832c-17.273-0.28339-5.6358 34.516-17.516 39.01-16.862 5.6207-22.109 22.107-22.109 22.107l-2.6211 5.2461s-14.615 25.48 6.3691 32.975c20.984 7.4942 23.982-14.238 23.982-14.238s4.8698 45.716 31.1 41.594 33.35-32.977 33.35-32.977l-31.475-33.723-2.998-9.7422c12.874-26.398 20.588-47.276-17.236-50.213-0.28895-0.0224-0.57153-0.0346-0.8457-0.0391z" style="fill:url(#linearGradient994);stroke-width:5;stroke:#000"/><path d="m364.59 151.01s30.352 1.1241 36.347-17.237-12.74-23.982-12.74-23.982 28.478-4.1218 23.982-28.103c-4.4966-23.982-20.609-26.979-20.609-26.979l-28.103 29.977-6.7448 7.869z" style="fill:url(#linearGradient986);stroke-width:5.0003;stroke:#000"/><path d="m312.88 206.47c12.365-19.11 14.988-51.336 12.74-55.832-2.2483-4.4965-17.237-40.469-31.476-49.087-14.239-8.6184-1.8736-14.988-1.8736-14.988s28.853 27.354 32.225 36.722 17.237 36.347 11.241 57.331c-5.9954 20.984-15.363 31.851-15.363 31.851l-8.9931-5.6207z" style="fill-opacity:.96471;fill:#589446;stroke-width:5;stroke:#000"/><path d="m332.74 191.48s31.101-39.719 24.731-60.329c-6.3701-20.609-3.3724-47.588-3.3724-47.588l9.3678 1.1241s-0.37471 30.726 2.9977 40.094 5.246 30.352-0.74942 38.97c-5.9954 8.6184-38.221 52.085-38.221 52.085l-7.1195-3.3724z" style="fill-opacity:.96471;fill:#589446;stroke-width:5;stroke:#000"/><path d="m338.74 219.58s26.605-37.471 35.598-44.965 68.947-13.864 68.947-13.864l-3.7471-13.864s-55.457 6.3701-65.2 13.49c-9.7425 7.1195-46.839 55.457-46.839 55.457z" style="fill-opacity:.96471;fill:#589446;stroke-width:5;stroke:#000"/><path d="m167.82 419.79s10.365-15.548 6.6634-24.679c-3.7019-9.1313-43.081-77.798-42.12-104.97 0.95097-26.9-4.3279-55.018 54.213-87.775 33.952-18.998 78.984-15.593 99.221-10.904 13.299 3.0816 24.635 15.926 36.985 21.752 6.4421 3.0392 44.022 12.54 52.99 21.169 26.16 25.173 40.024 50.385 30.632 95.902-9.6508 46.772-30.623 74.641-85.164 83.772-54.541 9.1313-80.964-7.4128-110.23-8.3354-17.712-0.55836-43.189 14.067-43.189 14.067z" style="fill:#fffdf9;stroke-width:1px;stroke:#000"/><path d="m163.57 254.05c-10.336-0.29752-17.921 9.5877-31.072 30.359-0.0297 1.9177-0.0655 3.83-0.13281 5.7344-0.96057 27.172 38.419 95.837 42.121 104.97 3.7019 9.1313-6.6641 24.68-6.6641 24.68s25.477-14.627 43.189-14.068c29.266 0.92259 55.688 17.467 110.23 8.3359 31.728-5.312 52.083-16.979 65.471-35.006l-0.37891-1.3457s-16.488 4.4969-28.479 2.998c-11.991-1.4988 14.99-58.08-18.734-76.066-33.724-17.986-64.826 45.715-64.451 40.844 0.37471-4.8713-3.3734-41.219-31.852-58.83-28.478-17.611-22.856 43.092-28.477 42.717s-23.982-66.324-43.842-73.818c-2.4825-0.93678-4.7666-1.4397-6.9277-1.502z" style="fill:url(#linearGradient905);stroke-width:5;stroke:#000"/><path d="m251.26 187.8c-20.462-0.0952-44.526 3.286-64.686 14.566-3.5719 1.9987-6.8991 3.9784-10.012 5.9434 11.756 4.5782 27.248 10.167 45.643 15.766 43.092 13.115 38.809 40.566 63.701 52.084 20.744 9.5982 43.466 15.738 67.447 12.365 23.982-3.3724 30.352 2e-3 44.217 7.1211 3.0038 1.5425 7.126 3.0614 11.697 4.5039-1.0279-27.748-13.758-46.77-33.498-65.766-8.968-8.6296-46.548-18.131-52.99-21.17-12.35-5.8262-23.685-18.67-36.984-21.752-8.2212-1.9049-20.535-3.5969-34.535-3.6621z" style="fill:url(#linearGradient965);stroke-width:5;stroke:#000"/><path d="m167.82 419.79s10.365-15.548 6.6634-24.679c-3.7019-9.1313-43.081-77.798-42.12-104.97 0.95097-26.9-4.3279-55.018 54.213-87.775 33.952-18.998 78.984-15.593 99.221-10.904 13.299 3.0816 24.635 15.926 36.985 21.752 6.4421 3.0392 44.022 12.54 52.99 21.169 26.16 25.173 40.024 50.385 30.632 95.902-9.6508 46.772-30.623 74.641-85.164 83.772-54.541 9.1313-80.964-7.4128-110.23-8.3354-17.712-0.55836-43.189 14.067-43.189 14.067z" style="fill:none;stroke-linecap:round;stroke-linejoin:round;stroke-width:5;stroke:#000"/></g></svg>
